<mxfile host="app.diagrams.net" agent="Mozilla/5.0 (Windows NT 10.0; Win64; x64) AppleWebKit/537.36 (KHTML, like Gecko) Chrome/126.0.0.0 Safari/537.36 Edg/126.0.0.0" version="26.2.13">
  <diagram name="第 1 页" id="_EW899rVTT_uu1h-7h3q">
    <mxGraphModel dx="832" dy="536" grid="1" gridSize="10" guides="1" tooltips="1" connect="1" arrows="1" fold="1" page="1" pageScale="1" pageWidth="827" pageHeight="1169" math="0" shadow="0">
      <root>
        <mxCell id="0" />
        <mxCell id="1" parent="0" />
        <mxCell id="6p4-ZevEPB7TmD5nsguA-7" value="" style="edgeStyle=orthogonalEdgeStyle;rounded=0;orthogonalLoop=1;jettySize=auto;html=1;" edge="1" parent="1" source="6p4-ZevEPB7TmD5nsguA-1" target="6p4-ZevEPB7TmD5nsguA-2">
          <mxGeometry relative="1" as="geometry" />
        </mxCell>
        <mxCell id="6p4-ZevEPB7TmD5nsguA-1" value="展示层" style="rounded=0;whiteSpace=wrap;html=1;" vertex="1" parent="1">
          <mxGeometry x="160" y="120" width="120" height="60" as="geometry" />
        </mxCell>
        <mxCell id="6p4-ZevEPB7TmD5nsguA-8" value="" style="edgeStyle=orthogonalEdgeStyle;rounded=0;orthogonalLoop=1;jettySize=auto;html=1;" edge="1" parent="1" source="6p4-ZevEPB7TmD5nsguA-2" target="6p4-ZevEPB7TmD5nsguA-3">
          <mxGeometry relative="1" as="geometry" />
        </mxCell>
        <mxCell id="6p4-ZevEPB7TmD5nsguA-2" value="业务逻辑层" style="rounded=0;whiteSpace=wrap;html=1;" vertex="1" parent="1">
          <mxGeometry x="160" y="210" width="120" height="60" as="geometry" />
        </mxCell>
        <mxCell id="6p4-ZevEPB7TmD5nsguA-3" value="客户端网络模块" style="rounded=0;whiteSpace=wrap;html=1;" vertex="1" parent="1">
          <mxGeometry x="160" y="300" width="120" height="60" as="geometry" />
        </mxCell>
        <mxCell id="6p4-ZevEPB7TmD5nsguA-9" value="" style="edgeStyle=orthogonalEdgeStyle;rounded=0;orthogonalLoop=1;jettySize=auto;html=1;" edge="1" parent="1" source="6p4-ZevEPB7TmD5nsguA-4" target="6p4-ZevEPB7TmD5nsguA-5">
          <mxGeometry relative="1" as="geometry" />
        </mxCell>
        <mxCell id="6p4-ZevEPB7TmD5nsguA-4" value="接口模块&lt;div&gt;Controller&lt;/div&gt;" style="rounded=0;whiteSpace=wrap;html=1;" vertex="1" parent="1">
          <mxGeometry x="340" y="120" width="120" height="60" as="geometry" />
        </mxCell>
        <mxCell id="6p4-ZevEPB7TmD5nsguA-10" value="" style="edgeStyle=orthogonalEdgeStyle;rounded=0;orthogonalLoop=1;jettySize=auto;html=1;" edge="1" parent="1" source="6p4-ZevEPB7TmD5nsguA-5" target="6p4-ZevEPB7TmD5nsguA-6">
          <mxGeometry relative="1" as="geometry" />
        </mxCell>
        <mxCell id="6p4-ZevEPB7TmD5nsguA-5" value="业务逻辑层&lt;div&gt;ServiceImpl&lt;/div&gt;" style="rounded=0;whiteSpace=wrap;html=1;" vertex="1" parent="1">
          <mxGeometry x="340" y="210" width="120" height="60" as="geometry" />
        </mxCell>
        <mxCell id="6p4-ZevEPB7TmD5nsguA-6" value="数据接口层&lt;div&gt;Repository&lt;/div&gt;" style="rounded=0;whiteSpace=wrap;html=1;" vertex="1" parent="1">
          <mxGeometry x="340" y="300" width="120" height="60" as="geometry" />
        </mxCell>
        <mxCell id="6p4-ZevEPB7TmD5nsguA-11" value="客户端模块视图" style="text;html=1;align=center;verticalAlign=middle;whiteSpace=wrap;rounded=0;" vertex="1" parent="1">
          <mxGeometry x="165" y="70" width="110" height="30" as="geometry" />
        </mxCell>
        <mxCell id="6p4-ZevEPB7TmD5nsguA-12" value="服务端模块视图" style="text;html=1;align=center;verticalAlign=middle;whiteSpace=wrap;rounded=0;" vertex="1" parent="1">
          <mxGeometry x="340" y="70" width="110" height="30" as="geometry" />
        </mxCell>
      </root>
    </mxGraphModel>
  </diagram>
</mxfile>
